<svg width="41" height="41" viewBox="0 0 41 41" fill="none" xmlns="http://www.w3.org/2000/svg">
<path d="M36.6071 0H4.39286C1.96763 0 0 1.96763 0 4.39286V36.6071C0 39.0324 1.96763 41 4.39286 41H36.6071C39.0324 41 41 39.0324 41 36.6071V4.39286C41 1.96763 39.0324 0 36.6071 0ZM32.1319 14.533C32.1502 14.7893 32.1502 15.0547 32.1502 15.3109C32.1502 23.2455 26.11 32.3882 15.073 32.3882C11.6685 32.3882 8.51116 31.3998 5.85714 29.6975C6.34219 29.7525 6.80893 29.7708 7.30313 29.7708C10.1127 29.7708 12.6935 28.819 14.7527 27.2083C12.117 27.1533 9.90223 25.4237 9.14263 23.0442C10.067 23.1815 10.8998 23.1815 11.8516 22.9344C9.10603 22.3761 7.04688 19.96 7.04688 17.0406V16.9674C7.84308 17.4158 8.77656 17.6904 9.7558 17.727C8.93254 17.1794 8.25764 16.4365 7.79135 15.5646C7.32505 14.6927 7.08186 13.7189 7.08348 12.7301C7.08348 11.6136 7.37634 10.5886 7.89799 9.70089C10.854 13.3433 15.2926 15.7228 20.2712 15.979C19.4201 11.9065 22.4676 8.60268 26.1283 8.60268C27.858 8.60268 29.4138 9.32567 30.5121 10.4971C31.8665 10.2408 33.1661 9.7375 34.3192 9.05112C33.8708 10.4422 32.9281 11.6136 31.6835 12.3549C32.8915 12.2268 34.0629 11.8882 35.1429 11.4214C34.3284 12.6203 33.3033 13.6819 32.1319 14.533Z" fill="black"/>
</svg>
