<svg width="15" height="15" viewBox="0 0 15 15" fill="none" xmlns="http://www.w3.org/2000/svg">
<path d="M14.4 0H0.6C0.268125 0 0 0.268125 0 0.6V14.4C0 14.7319 0.268125 15 0.6 15H14.4C14.7319 15 15 14.7319 15 14.4V0.6C15 0.268125 14.7319 0 14.4 0ZM11.5369 5.43188C11.5425 5.52 11.5425 5.61188 11.5425 5.70188C11.5425 8.45438 9.44625 11.625 5.61563 11.625C4.43438 11.625 3.33938 11.2819 2.41687 10.6913C2.58562 10.71 2.74688 10.7175 2.91938 10.7175C3.89438 10.7175 4.79063 10.3875 5.505 9.82875C4.59 9.81 3.82125 9.21 3.55875 8.385C3.87937 8.43188 4.16813 8.43188 4.49813 8.3475C4.02699 8.25178 3.60352 7.99591 3.29966 7.62334C2.9958 7.25078 2.83029 6.78451 2.83125 6.30375V6.2775C3.10688 6.43313 3.43125 6.52875 3.77063 6.54188C3.48533 6.35174 3.25136 6.09414 3.08946 5.79193C2.92756 5.48972 2.84273 5.15222 2.8425 4.80938C2.8425 4.42125 2.94375 4.06687 3.12563 3.75938C3.64857 4.40313 4.30112 4.92964 5.04087 5.30469C5.78062 5.67973 6.59101 5.89491 7.41938 5.93625C7.125 4.52063 8.1825 3.375 9.45375 3.375C10.0538 3.375 10.5938 3.62625 10.9744 4.03125C11.445 3.94313 11.895 3.76688 12.2963 3.53062C12.1406 4.0125 11.8144 4.41937 11.3813 4.67625C11.8013 4.63125 12.2063 4.515 12.5813 4.35188C12.2981 4.76813 11.9438 5.1375 11.5369 5.43188Z" fill="#55ACEE"/>
</svg>
