<svg width="41" height="40" viewBox="0 0 41 40" fill="none" xmlns="http://www.w3.org/2000/svg">
<path d="M20.5 15.2375C19.5346 15.2379 18.591 15.5175 17.7884 16.041C16.9859 16.5645 16.3605 17.3084 15.9913 18.1787C15.6221 19.049 15.5257 20.0065 15.7143 20.9302C15.9029 21.8539 16.3679 22.7024 17.0507 23.3682C17.7335 24.0341 18.6033 24.4875 19.5502 24.6711C20.497 24.8547 21.4785 24.7603 22.3703 24.3998C23.2622 24.0393 24.0245 23.4289 24.5608 22.6457C25.0971 21.8626 25.3834 20.9419 25.3834 20C25.3824 18.7369 24.8676 17.5258 23.9519 16.6328C23.0362 15.7398 21.7947 15.238 20.5 15.2375ZM31.9132 11.5768C31.6647 10.9624 31.2894 10.4043 30.8107 9.93724C30.3319 9.47017 29.7599 9.10406 29.1301 8.86161C27.2083 8.12143 22.6324 8.2875 20.5 8.2875C18.3676 8.2875 13.7963 8.11518 11.869 8.86161C11.2392 9.10406 10.6672 9.47017 10.1884 9.93724C9.70967 10.4043 9.3344 10.9624 9.08589 11.5768C8.32812 13.4518 8.49743 17.9205 8.49743 19.9991C8.49743 22.0777 8.32812 26.5411 9.08955 28.4223C9.33806 29.0367 9.71333 29.5948 10.1921 30.0619C10.6708 30.5289 11.2428 30.8951 11.8726 31.1375C13.7945 31.8777 18.3704 31.7116 20.5037 31.7116C22.6369 31.7116 27.2064 31.8839 29.1338 31.1375C29.7636 30.8951 30.3356 30.5289 30.8143 30.0619C31.2931 29.5948 31.6683 29.0367 31.9169 28.4223C32.681 26.5473 32.5053 22.0786 32.5053 20C32.5053 17.9214 32.681 13.4589 31.9169 11.5777L31.9132 11.5768ZM20.5 27.3214C19.0158 27.3214 17.5648 26.892 16.3307 26.0875C15.0966 25.2831 14.1348 24.1396 13.5668 22.8018C12.9988 21.464 12.8502 19.9919 13.1397 18.5717C13.4293 17.1514 14.144 15.8469 15.1935 14.823C16.2431 13.799 17.5802 13.1018 19.036 12.8193C20.4917 12.5368 22.0006 12.6817 23.3718 13.2359C24.7431 13.79 25.9151 14.7284 26.7397 15.9324C27.5643 17.1364 28.0045 18.552 28.0045 20C28.0057 20.9618 27.8124 21.9144 27.4357 22.8032C27.059 23.692 26.5062 24.4996 25.8091 25.1797C25.1121 25.8597 24.2843 26.399 23.3733 26.7665C22.4622 27.134 21.4858 27.3226 20.5 27.3214ZM28.3138 14.0804C27.9673 14.0805 27.6286 13.9805 27.3404 13.7928C27.0522 13.6051 26.8275 13.3383 26.6948 13.026C26.5621 12.7138 26.5273 12.3701 26.5948 12.0386C26.6623 11.707 26.829 11.4024 27.0739 11.1633C27.3189 10.9243 27.631 10.7614 27.9708 10.6954C28.3106 10.6294 28.6629 10.6632 28.983 10.7925C29.3031 10.9218 29.5767 11.1409 29.7693 11.4219C29.9618 11.703 30.0645 12.0334 30.0645 12.3714C30.0655 12.5959 30.021 12.8184 29.9337 13.026C29.8463 13.2337 29.7178 13.4225 29.5555 13.5816C29.3932 13.7407 29.2002 13.867 28.9878 13.9532C28.7753 14.0394 28.5475 14.0838 28.3175 14.0839L28.3138 14.0804ZM36.6071 0H4.39286C3.2278 0 2.11046 0.451529 1.28664 1.25526C0.462818 2.05898 0 3.14907 0 4.28571L0 35.7143C0 36.8509 0.462818 37.941 1.28664 38.7447C2.11046 39.5485 3.2278 40 4.39286 40H36.6071C37.7722 40 38.8895 39.5485 39.7134 38.7447C40.5372 37.941 41 36.8509 41 35.7143V4.28571C41 3.14907 40.5372 2.05898 39.7134 1.25526C38.8895 0.451529 37.7722 0 36.6071 0ZM35.0404 25.8929C34.9223 28.1813 34.3869 30.2089 32.6746 31.875C30.9623 33.5411 28.8858 34.0741 26.5429 34.183C24.1259 34.3161 16.8796 34.3161 14.4626 34.183C12.117 34.0679 10.0459 33.5446 8.33087 31.875C6.61583 30.2054 6.07679 28.1768 5.96513 25.8929C5.82877 23.5339 5.82877 16.4634 5.96513 14.1071C6.08319 11.8188 6.61216 9.79107 8.33087 8.125C10.0496 6.45893 12.1261 5.93214 14.4626 5.82321C16.8796 5.69018 24.1259 5.69018 26.5429 5.82321C28.8885 5.93839 30.966 6.46161 32.6746 8.13125C34.3833 9.80089 34.9287 11.8295 35.0404 14.1179C35.1767 16.4679 35.1767 23.5321 35.0404 25.8929Z" fill="black"/>
</svg>
