<svg width="15" height="15" viewBox="0 0 15 15" fill="none" xmlns="http://www.w3.org/2000/svg">
<g clip-path="url(#clip0)">
<path d="M14.1721 15.0001C14.6293 15.0001 15 14.6294 15 14.1722V0.827871C15 0.370605 14.6293 0 14.1721 0H0.827871C0.370547 0 0 0.370605 0 0.827871V14.1722C0 14.6294 0.370547 15.0001 0.827871 15.0001H14.1721Z" fill="#395185"/>
<path d="M9.29252 14.7345V8.92572H11.2423L11.5343 6.66195H9.29252V5.21656C9.29252 4.56113 9.47457 4.11447 10.4145 4.11447L11.6132 4.11395V2.08924C11.4058 2.06164 10.6943 2 9.86645 2C8.13805 2 6.95481 3.05498 6.95481 4.99244V6.66195H5V8.92572H6.95481V14.7345H9.29252Z" fill="white"/>
</g>
<defs>
<clipPath id="clip0">
<rect width="15" height="15" fill="white"/>
</clipPath>
</defs>
</svg>
