<svg width="15" height="15" viewBox="0 0 15 15" fill="none" xmlns="http://www.w3.org/2000/svg">
<path d="M7.5 0C3.35813 0 0 3.35813 0 7.5C0 11.6419 3.35813 15 7.5 15C11.6419 15 15 11.6419 15 7.5C15 3.35813 11.6419 0 7.5 0ZM8.125 10.0356V8.125H9.99625C9.95938 8.83938 9.86375 9.525 9.71125 10.1744C9.19688 10.0994 8.665 10.0569 8.125 10.0356V10.0356ZM9.34812 11.3869C9.03625 12.2181 8.62375 12.9475 8.125 13.5469V11.2844C8.54125 11.3019 8.94937 11.335 9.34812 11.3869ZM8.125 6.875V4.99063C8.6675 4.96938 9.20063 4.92625 9.7175 4.85063C9.86625 5.4925 9.96063 6.17 9.99625 6.875H8.125ZM8.125 3.74125V1.45313C8.62875 2.05875 9.04437 2.79688 9.35687 3.63813C8.95562 3.69063 8.54438 3.72375 8.125 3.74125ZM9.81438 1.69938C10.5875 2.00938 11.2856 2.46687 11.8706 3.04062C11.4694 3.18687 11.0513 3.31688 10.6088 3.42C10.3938 2.8 10.1244 2.22625 9.81438 1.69938V1.69938ZM5.28875 10.1744C5.13625 9.525 5.04 8.83938 5.00375 8.125H6.875V10.0356C6.33437 10.0569 5.80375 10.0994 5.28875 10.1744ZM6.875 11.2844V13.5469C6.37625 12.9475 5.96375 12.2181 5.65188 11.3869C6.05063 11.335 6.45875 11.3019 6.875 11.2844ZM5.00375 6.875C5.03937 6.17 5.13312 5.4925 5.2825 4.85063C5.79937 4.92625 6.3325 4.96938 6.875 4.99063V6.875H5.00375ZM5.64375 3.63813C5.95625 2.79688 6.37187 2.05875 6.875 1.45313V3.74125C6.45562 3.72375 6.04437 3.69063 5.64375 3.63813ZM4.39063 3.41938C3.94813 3.31625 3.53 3.18625 3.12937 3.04C3.715 2.46625 4.4125 2.00875 5.18562 1.69875C4.87562 2.22625 4.60625 2.8 4.39063 3.41938V3.41938ZM4.0475 4.61812C3.8825 5.3375 3.77625 6.09312 3.74 6.875H1.28188C1.385 5.83875 1.74375 4.87687 2.2925 4.05125C2.8425 4.27687 3.4275 4.47 4.0475 4.61812ZM4.05313 10.4069C3.43563 10.5544 2.85312 10.7456 2.305 10.9694C1.74875 10.1394 1.38563 9.17 1.28188 8.125H3.74063C3.77688 8.91562 3.885 9.68 4.05313 10.4069ZM4.39875 11.605C4.6125 12.215 4.87875 12.7806 5.18438 13.3C4.42 12.9938 3.73063 12.5431 3.14938 11.9781C3.54688 11.835 3.96125 11.7063 4.39875 11.605V11.605ZM10.6012 11.605C11.0387 11.7069 11.4525 11.8344 11.8506 11.9781C11.2688 12.5425 10.5794 12.9938 9.815 13.3006C10.1206 12.7806 10.3869 12.215 10.6012 11.605ZM10.9469 10.4069C11.1156 9.68 11.2231 8.91562 11.26 8.125H13.7188C13.6144 9.17 13.2513 10.1394 12.695 10.9694C12.1469 10.7456 11.5637 10.5544 10.9469 10.4069V10.4069ZM11.26 6.875C11.2238 6.09312 11.1169 5.3375 10.9525 4.61812C11.5725 4.47 12.1581 4.27687 12.7081 4.05125C13.2563 4.87687 13.615 5.83875 13.7181 6.875H11.26Z" fill="black"/>
</svg>
